# xmcd
#
# Track frame offsets:
#	150
#	27378
#	38829
#	65196
#	83503
#	97641
#	110705
#	132457
#	138597
#	150320
#	166320
#	176606
#	194731
#	209589
#	236607
#	261743
#
# Disc length: 4072 seconds
#
# Revision: 0
# Processed by: cddbd v1.5.1PL0 Copyright (c) Steve Scherf et al.
# Submitted via: dBpowerAMP V4.0
#
DISCID=ea0fe610
DTITLE=Jeremy P. Caulfield - Detached [05]
DYEAR=2005
DGENRE=acid-dub, te4
TTITLE0=Wighnomy Brothers And Robag Wruhme - Pele Bloss
TTITLE1=John Tejada And Arian Leviste - Psycho Happiness
TTITLE2=Christian Linder And Smg - Flames
TTITLE3=Frank Martiniq - Use Fuse
TTITLE4=Donato Dozzy And Brando Lupi - Destination Eskimo (Part 2)
TTITLE5=Mathias Schaffhauser - Truthology (Frank Martiniq Remix)
TTITLE6=Alex Smoke - Simple Things
TTITLE7=Tekel - Ridvo
TTITLE8=Rocco Branco - Catch And Release
TTITLE9=M.I.A. - Sweet November
TTITLE10=Apoll - Father
TTITLE11=Boogie Drama - Stalker's Groove (John Tejada's Stalking Groove Mix)
TTITLE12=Jeff Samuel - Awt
TTITLE13=Dj Minx - a Walk in The Park (Win's Run Through The Park Reinterpretation)
TTITLE14=Metope - Second Skin
TTITLE15=Markus Muller - Prise
EXTD=
EXTT0=
EXTT1=
EXTT2=
EXTT3=
EXTT4=
EXTT5=
EXTT6=
EXTT7=
EXTT8=
EXTT9=
EXTT10=
EXTT11=
EXTT12=
EXTT13=
EXTT14=
EXTT15=
PLAYORDER=
